<svg xmlns="http://www.w3.org/2000/svg" xmlns:xlink="http://www.w3.org/1999/xlink" width="480" zoomAndPan="magnify" viewBox="0 0 360 287.999989" height="384" preserveAspectRatio="xMidYMid meet" version="1.0"><defs><clipPath id="e22ca8558e"><path d="M 150 262.242188 L 210.820312 262.242188 L 210.820312 287.90625 L 150 287.90625 Z M 150 262.242188 " clip-rule="nonzero"/></clipPath><clipPath id="8d6c2c1613"><path d="M 2.769531 61 L 44 61 L 44 200 L 2.769531 200 Z M 2.769531 61 " clip-rule="nonzero"/></clipPath><clipPath id="47b2c2117c"><path d="M 320.148438 63 L 357.519531 63 L 357.519531 192 L 320.148438 192 Z M 320.148438 63 " clip-rule="nonzero"/></clipPath></defs><rect x="-36" width="432" fill="#ffffff" y="-28.799999" height="345.599986" fill-opacity="1"/><rect x="-36" width="432" fill="#ffffff" y="-28.799999" height="345.599986" fill-opacity="1"/><rect x="-36" width="432" fill="#ffffff" y="-28.799999" height="345.599986" fill-opacity="1"/><g clip-path="url(#e22ca8558e)"><path fill="#fac21b" d="M 199.769531 262.535156 L 150.421875 262.535156 C 152.851562 276.917969 165.398438 287.90625 180.472656 287.90625 C 195.546875 287.90625 208.09375 276.917969 210.523438 262.535156 L 199.769531 262.535156 " fill-opacity="1" fill-rule="nonzero"/></g><path fill="#fac21b" d="M 162.785156 26.632812 C 168.515625 25.453125 174.425781 24.832031 180.472656 24.832031 C 186.519531 24.832031 192.433594 25.453125 198.160156 26.632812 C 200.003906 27.011719 201.828125 27.441406 203.632812 27.933594 C 205.4375 28.425781 207.21875 28.984375 208.980469 29.585938 C 208.65625 13.253906 195.996094 0.0703125 180.472656 0.0703125 C 164.949219 0.0703125 152.289062 13.253906 151.964844 29.585938 C 153.726562 28.984375 155.507812 28.425781 157.316406 27.933594 C 159.117188 27.441406 160.941406 27.011719 162.785156 26.632812 " fill-opacity="1" fill-rule="nonzero"/><path fill="#fac21b" d="M 286.34375 222.828125 C 279.367188 216.25 272.15625 209.449219 266.359375 200.089844 C 256.960938 184.917969 262.777344 129.023438 262.941406 127.445312 L 262.878906 127.015625 L 262.894531 126.550781 C 262.929688 125.527344 262.945312 124.578125 262.945312 123.65625 C 262.945312 85.472656 240.195312 52.878906 208.445312 40.582031 C 206.734375 39.921875 204.992188 39.316406 203.230469 38.773438 C 201.503906 38.242188 199.753906 37.773438 197.984375 37.359375 C 192.339844 36.050781 186.480469 35.351562 180.472656 35.351562 C 174.464844 35.351562 168.609375 36.050781 162.960938 37.359375 C 161.191406 37.773438 159.441406 38.242188 157.714844 38.773438 C 155.953125 39.316406 154.210938 39.921875 152.5 40.582031 C 120.75 52.878906 98 85.472656 98 123.65625 C 98 124.578125 98.015625 125.527344 98.050781 126.550781 L 98.066406 127.015625 L 98.003906 127.445312 C 98.179688 129.109375 103.976562 184.929688 94.585938 200.089844 C 88.785156 209.449219 81.574219 216.25 74.601562 222.828125 C 71.136719 226.097656 67.152344 232.582031 64.460938 239.339844 C 61.808594 246.003906 61.417969 250.292969 61.65625 252.015625 L 299.835938 252.015625 C 300.136719 250.492188 299.785156 246.210938 296.867188 239.332031 C 294.042969 232.671875 289.914062 226.195312 286.34375 222.828125 " fill-opacity="1" fill-rule="nonzero"/><path fill="#fac21b" d="M 67.066406 174.5625 C 70.972656 171.78125 71.882812 166.359375 69.101562 162.457031 C 62.023438 152.53125 58.277344 140.816406 58.277344 128.578125 C 58.277344 116.90625 61.707031 105.640625 68.191406 96.003906 C 70.867188 92.027344 69.8125 86.632812 65.832031 83.960938 C 61.851562 81.285156 56.453125 82.339844 53.777344 86.320312 C 45.355469 98.832031 40.90625 113.445312 40.90625 128.578125 C 40.90625 144.445312 45.761719 159.644531 54.949219 172.527344 C 56.644531 174.90625 59.320312 176.171875 62.03125 176.171875 C 63.777344 176.171875 65.535156 175.648438 67.066406 174.5625 " fill-opacity="1" fill-rule="nonzero"/><g clip-path="url(#8d6c2c1613)"><path fill="#fac21b" d="M 23.828125 128.578125 C 23.828125 110.582031 28.976562 93.128906 38.726562 78.109375 C 41.886719 73.234375 40.496094 66.722656 35.617188 63.5625 C 30.738281 60.398438 24.21875 61.789062 21.054688 66.664062 C 9.09375 85.101562 2.769531 106.511719 2.769531 128.578125 C 2.769531 152.863281 10.308594 176.042969 24.574219 195.613281 C 26.636719 198.4375 29.84375 199.9375 33.09375 199.9375 C 35.242188 199.9375 37.414062 199.28125 39.285156 197.921875 C 43.984375 194.5 45.019531 187.917969 41.59375 183.226562 C 29.972656 167.277344 23.828125 148.378906 23.828125 128.578125 " fill-opacity="1" fill-rule="nonzero"/></g><path fill="#fac21b" d="M 293.832031 83.167969 C 289.890625 85.898438 288.910156 91.308594 291.644531 95.246094 C 298.445312 105.039062 302.042969 116.546875 302.042969 128.523438 C 302.042969 140.15625 298.636719 151.386719 292.191406 161.003906 C 289.519531 164.988281 290.589844 170.378906 294.574219 173.042969 C 296.058594 174.035156 297.738281 174.511719 299.398438 174.511719 C 302.199219 174.511719 304.949219 173.164062 306.625 170.660156 C 314.992188 158.179688 319.414062 143.605469 319.414062 128.523438 C 319.414062 112.996094 314.746094 98.066406 305.917969 85.351562 C 303.1875 81.414062 297.773438 80.433594 293.832031 83.167969 " fill-opacity="1" fill-rule="nonzero"/><g clip-path="url(#47b2c2117c)"><path fill="#fac21b" d="M 340.261719 68.171875 C 337.179688 63.246094 330.683594 61.75 325.753906 64.832031 C 320.820312 67.914062 319.324219 74.40625 322.410156 79.332031 C 331.625 94.050781 336.492188 111.0625 336.492188 128.523438 C 336.492188 145.125 332.0625 161.417969 323.683594 175.628906 C 320.730469 180.632812 322.394531 187.082031 327.40625 190.03125 C 329.085938 191.023438 330.925781 191.488281 332.742188 191.488281 C 336.347656 191.488281 339.859375 189.636719 341.824219 186.308594 C 352.113281 168.863281 357.550781 148.882812 357.550781 128.523438 C 357.550781 107.109375 351.574219 86.242188 340.261719 68.171875 " fill-opacity="1" fill-rule="nonzero"/></g></svg>